{
	"asset":{
		"generator":"Khronos glTF Blender I/O v4.4.56",
		"version":"2.0"
	},
	"scene":0,
	"scenes":[
		{
			"name":"Scene",
			"nodes":[
				17,
				18,
				19
			]
		}
	],
	"nodes":[
		{
			"name":"Head",
			"rotation":[
				0,
				1.4210854715202004e-14,
				0,
				1
			],
			"translation":[
				1.0643208536720294e-10,
				0.3340858221054077,
				-4.367950445782753e-12
			]
		},
		{
			"name":"armlower.L",
			"rotation":[
				0.02755734696984291,
				0.002830736106261611,
				0.04712304100394249,
				0.9985048770904541
			],
			"scale":[
				0.9999998807907104,
				1,
				0.9999999403953552
			],
			"translation":[
				-3.211243893019855e-08,
				0.3358082175254822,
				-3.725290298461914e-09
			]
		},
		{
			"children":[
				1
			],
			"name":"armupper.L",
			"rotation":[
				0.011136199347674847,
				-0.01692010834813118,
				-0.8204047083854675,
				0.5714243650436401
			],
			"scale":[
				1,
				0.9999999403953552,
				1
			],
			"translation":[
				0.34387654066085815,
				0.09843432903289795,
				0.031924374401569366
			]
		},
		{
			"name":"armlower.R",
			"rotation":[
				0.027557343244552612,
				-0.0028307298198342323,
				-0.04712303355336189,
				0.9985048770904541
			],
			"scale":[
				0.9999998807907104,
				1,
				0.9999999403953552
			],
			"translation":[
				-1.3145472621545196e-07,
				0.3358081579208374,
				-2.7939677238464355e-09
			]
		},
		{
			"children":[
				3
			],
			"name":"armupper.R",
			"rotation":[
				0.011136007495224476,
				0.016919970512390137,
				0.8204047083854675,
				0.5714243650436401
			],
			"scale":[
				1,
				0.9999998807907104,
				1
			],
			"translation":[
				-0.34387660026550293,
				0.09843432903289795,
				0.031924210488796234
			]
		},
		{
			"children":[
				0,
				2,
				4
			],
			"name":"Chest",
			"rotation":[
				0,
				1.1920927533992653e-07,
				0,
				1
			],
			"scale":[
				1,
				0.9999999403953552,
				1
			],
			"translation":[
				0,
				0.3513529300689697,
				0
			]
		},
		{
			"children":[
				5
			],
			"name":"Spine",
			"translation":[
				0,
				0.28597038984298706,
				0
			]
		},
		{
			"name":"leglow.L",
			"rotation":[
				9.74750502535926e-09,
				-5.779334699695937e-08,
				-0.071269690990448,
				0.9974571466445923
			],
			"translation":[
				-3.1326766958272856e-08,
				0.2165125161409378,
				-1.147970163373202e-09
			]
		},
		{
			"children":[
				7
			],
			"name":"legtop.L",
			"rotation":[
				2.5463714337092824e-07,
				-2.54120386955492e-08,
				-0.9984351992607117,
				0.0559210442006588
			],
			"scale":[
				0.9999966621398926,
				0.9999999403953552,
				1
			],
			"translation":[
				0.2527623474597931,
				-0.021979331970214844,
				9.313225746154785e-10
			]
		},
		{
			"name":"leglow.R",
			"rotation":[
				9.74750502535926e-09,
				5.779334699695937e-08,
				0.071269690990448,
				0.9974571466445923
			],
			"translation":[
				1.5244443485329384e-09,
				0.216512531042099,
				-5.048010898178745e-10
			]
		},
		{
			"children":[
				9
			],
			"name":"legtop.R",
			"rotation":[
				2.5463714337092824e-07,
				2.54120386955492e-08,
				0.9984351992607117,
				0.0559210442006588
			],
			"scale":[
				0.9999966621398926,
				0.9999999403953552,
				1
			],
			"translation":[
				-0.2527623474597931,
				-0.021979331970214844,
				9.313225746154785e-10
			]
		},
		{
			"name":"tail.002",
			"rotation":[
				0.0881403461098671,
				1.7438661722733366e-23,
				-1.9571035390361756e-17,
				0.9961081147193909
			],
			"scale":[
				1,
				1.0000001192092896,
				1
			],
			"translation":[
				-1.1709383462843448e-16,
				0.17842942476272583,
				0
			]
		},
		{
			"children":[
				11
			],
			"name":"tail.001",
			"rotation":[
				0.08554661273956299,
				-3.018243088863089e-17,
				-1.2576798140391055e-16,
				0.9963341355323792
			],
			"translation":[
				1.0234868508263162e-16,
				0.33411848545074463,
				1.4901161193847656e-08
			]
		},
		{
			"children":[
				12
			],
			"name":"tail",
			"rotation":[
				-0.5609710216522217,
				4.8830380691858996e-17,
				4.8830384000581446e-17,
				0.8278354406356812
			],
			"translation":[
				0,
				0.2953289747238159,
				-0.28625649213790894
			]
		},
		{
			"children":[
				6,
				8,
				10,
				13
			],
			"name":"Hip",
			"translation":[
				0,
				0.38739901781082153,
				0
			]
		},
		{
			"children":[
				14
			],
			"name":"Bone"
		},
		{
			"mesh":0,
			"name":"Cube",
			"skin":0
		},
		{
			"children":[
				16,
				15
			],
			"name":"Armature",
			"translation":[
				-0.003924570977687836,
				0.0028392220847308636,
				-0.004352658987045288
			]
		},
		{
			"name":"Empty",
			"rotation":[
				0.70710688829422,
				0,
				0,
				0.7071066498756409
			],
			"translation":[
				0.8318934440612793,
				1.37425696849823,
				-4.011392593383789
			]
		},
		{
			"name":"Empty.001",
			"rotation":[
				0.5000000596046448,
				0.5,
				-0.5,
				0.5
			],
			"translation":[
				-3.4974465370178223,
				1.37425696849823,
				1.0249677896499634
			]
		}
	],
	"materials":[
		{
			"doubleSided":true,
			"name":"Cat tex",
			"pbrMetallicRoughness":{
				"baseColorTexture":{
					"index":0
				},
				"metallicFactor":0,
				"roughnessFactor":0.5
			}
		}
	],
	"meshes":[
		{
			"name":"Cube.001",
			"primitives":[
				{
					"attributes":{
						"POSITION":0,
						"NORMAL":1,
						"TEXCOORD_0":2,
						"JOINTS_0":3,
						"WEIGHTS_0":4
					},
					"indices":5,
					"material":0
				}
			]
		}
	],
	"textures":[
		{
			"sampler":0,
			"source":0
		}
	],
	"images":[
		{
			"mimeType":"image/png",
			"name":"Cat tex",
			"uri":"Cat%20tex.png"
		}
	],
	"skins":[
		{
			"inverseBindMatrices":6,
			"joints":[
				15,
				14,
				6,
				5,
				0,
				2,
				1,
				4,
				3,
				8,
				7,
				10,
				9,
				13,
				12,
				11
			],
			"name":"Armature"
		}
	],
	"accessors":[
		{
			"bufferView":0,
			"componentType":5126,
			"count":669,
			"max":[
				0.9273618459701538,
				2.516824960708618,
				0.5542570352554321
			],
			"min":[
				-0.9273618459701538,
				-5.572318332269788e-05,
				-0.8954578042030334
			],
			"type":"VEC3"
		},
		{
			"bufferView":1,
			"componentType":5126,
			"count":669,
			"type":"VEC3"
		},
		{
			"bufferView":2,
			"componentType":5126,
			"count":669,
			"type":"VEC2"
		},
		{
			"bufferView":3,
			"componentType":5121,
			"count":669,
			"type":"VEC4"
		},
		{
			"bufferView":4,
			"componentType":5126,
			"count":669,
			"type":"VEC4"
		},
		{
			"bufferView":5,
			"componentType":5123,
			"count":3420,
			"type":"SCALAR"
		},
		{
			"bufferView":6,
			"componentType":5126,
			"count":16,
			"type":"MAT4"
		}
	],
	"bufferViews":[
		{
			"buffer":0,
			"byteLength":8028,
			"byteOffset":0,
			"target":34962
		},
		{
			"buffer":0,
			"byteLength":8028,
			"byteOffset":8028,
			"target":34962
		},
		{
			"buffer":0,
			"byteLength":5352,
			"byteOffset":16056,
			"target":34962
		},
		{
			"buffer":0,
			"byteLength":2676,
			"byteOffset":21408,
			"target":34962
		},
		{
			"buffer":0,
			"byteLength":10704,
			"byteOffset":24084,
			"target":34962
		},
		{
			"buffer":0,
			"byteLength":6840,
			"byteOffset":34788,
			"target":34963
		},
		{
			"buffer":0,
			"byteLength":1024,
			"byteOffset":41628
		}
	],
	"samplers":[
		{
			"magFilter":9729,
			"minFilter":9987
		}
	],
	"buffers":[
		{
			"byteLength":42652,
			"uri":"FPCat1.bin"
		}
	]
}
