{
	"asset":{
		"generator":"Khronos glTF Blender I/O v4.4.56",
		"version":"2.0"
	},
	"scene":0,
	"scenes":[
		{
			"name":"Scene",
			"nodes":[
				0,
				1,
				2
			]
		}
	],
	"nodes":[
		{
			"mesh":0,
			"name":"Cube"
		},
		{
			"name":"Empty",
			"rotation":[
				0.70710688829422,
				0,
				0,
				0.7071066498756409
			],
			"translation":[
				0.8318934440612793,
				1.37425696849823,
				-4.011392593383789
			]
		},
		{
			"name":"Empty.001",
			"rotation":[
				0.5000000596046448,
				0.5,
				-0.5,
				0.5
			],
			"translation":[
				-3.4974465370178223,
				1.37425696849823,
				1.0249677896499634
			]
		}
	],
	"materials":[
		{
			"doubleSided":true,
			"name":"Cat_tex1",
			"pbrMetallicRoughness":{
				"baseColorTexture":{
					"index":0
				},
				"metallicFactor":0,
				"roughnessFactor":0.5
			}
		}
	],
	"meshes":[
		{
			"name":"Cube.001",
			"primitives":[
				{
					"attributes":{
						"POSITION":0,
						"NORMAL":1,
						"TEXCOORD_0":2
					},
					"indices":3,
					"material":0
				}
			]
		}
	],
	"textures":[
		{
			"sampler":0,
			"source":0
		}
	],
	"images":[
		{
			"mimeType":"image/png",
			"name":"Cat_tex1",
			"uri":"Cat_tex1.png"
		}
	],
	"accessors":[
		{
			"bufferView":0,
			"componentType":5126,
			"count":669,
			"max":[
				0.9273618459701538,
				2.516824960708618,
				0.5542570352554321
			],
			"min":[
				-0.9273618459701538,
				-5.572318332269788e-05,
				-0.8954578042030334
			],
			"type":"VEC3"
		},
		{
			"bufferView":1,
			"componentType":5126,
			"count":669,
			"type":"VEC3"
		},
		{
			"bufferView":2,
			"componentType":5126,
			"count":669,
			"type":"VEC2"
		},
		{
			"bufferView":3,
			"componentType":5123,
			"count":3420,
			"type":"SCALAR"
		}
	],
	"bufferViews":[
		{
			"buffer":0,
			"byteLength":8028,
			"byteOffset":0,
			"target":34962
		},
		{
			"buffer":0,
			"byteLength":8028,
			"byteOffset":8028,
			"target":34962
		},
		{
			"buffer":0,
			"byteLength":5352,
			"byteOffset":16056,
			"target":34962
		},
		{
			"buffer":0,
			"byteLength":6840,
			"byteOffset":21408,
			"target":34963
		}
	],
	"samplers":[
		{
			"magFilter":9729,
			"minFilter":9987
		}
	],
	"buffers":[
		{
			"byteLength":28248,
			"uri":"FPcat.bin"
		}
	]
}
